<?xml version="1.0" standalone="no"?>
<!DOCTYPE svg PUBLIC "-//W3C//DTD SVG 20010904//EN" "http://www.w3.org/TR/2001/REC-SVG-20010904/DTD/svg10.dtd">
<svg
  version="1.0"
  xmlns="http://www.w3.org/2000/svg"
  width="888.000000pt"
  height="480.000000pt"
  viewBox="0 0 888.000000 480.000000"
  preserveAspectRatio="xMidYMid meet">
  <g
    transform="translate(0.000000,480.000000) scale(0.100000,-0.100000)"
    fill="#000000"
    stroke="none">
    <!-- Hair -->
    <path d="M4594 4750 c-34 -5 -84 -18 -110 -29 -27 -11 -105 -32 -174 -46 -142
    -30 -211 -58 -288 -117 -87 -67 -100 -111 -55 -187 l26 -45 -44 36 c-67 55
    -89 60 -209 53 -135 -9 -158 -20 -201 -97 -19 -34 -57 -84 -85 -112 -58 -58
    -72 -82 -104 -181 -26 -80 -108 -277 -186 -446 -29 -64 -65 -151 -78 -193 -42
    -127 -86 -367 -96 -518 -12 -176 -38 -258 -157 -492 -145 -288 -164 -377 -145
    -683 9 -155 15 -192 43 -278 39 -125 51 -147 105 -205 l44 -47 -15 -43 c-8
    -23 -15 -54 -15 -69 0 -38 19 -98 36 -115 16 -16 81 -32 91 -23 3 4 0 57 -7
    120 -14 129 -7 174 57 409 19 70 52 216 73 325 22 109 53 263 69 343 17 80 46
    258 66 395 20 138 52 336 72 440 30 161 36 221 42 395 6 153 12 216 24 248 37
    96 91 181 170 267 75 83 85 97 101 160 33 121 48 141 166 203 127 67 137 68
    209 27 159 -89 212 -97 477 -71 250 25 361 46 567 105 l67 20 157 -206 c161
    -212 188 -242 250 -278 26 -15 40 -33 55 -70 111 -293 119 -316 148 -487 52
    -297 119 -767 131 -913 14 -182 54 -421 85 -513 13 -40 24 -83 24 -96 0 -28
    -59 -96 -83 -96 -9 0 -41 11 -72 24 -30 14 -55 24 -55 22 0 -1 18 -54 41 -117
    56 -157 75 -243 104 -474 14 -109 27 -201 29 -203 10 -9 163 31 244 64 172 70
    289 143 522 321 62 48 81 70 108 123 72 144 68 213 -28 504 -66 199 -98 272
    -200 451 -37 66 -78 140 -92 165 l-24 45 40 100 c51 127 57 203 27 328 -27
    113 -39 136 -107 194 -121 103 -150 132 -265 265 -121 139 -168 217 -205 338
    -18 61 -59 124 -133 202 -43 46 -67 82 -80 120 -28 83 -71 164 -107 207 -45
    52 -149 104 -284 142 -121 34 -190 71 -250 134 -46 48 -102 80 -169 95 -30 7
    -81 24 -113 37 -68 27 -148 35 -234 23z"/>

    <!-- Eyebrow Left -->
    <path d="M3845 3724 c-61 -10 -330 -76 -366 -90 -44 -18 -59 -48 -59 -119 0
    -42 5 -59 21 -74 30 -28 53 -31 80 -9 13 11 55 39 92 64 65 43 72 45 161 51
    74 5 112 1 194 -16 l103 -22 39 31 c36 28 40 36 40 75 0 51 -16 91 -39 101
    -19 8 -224 14 -266 8z"/>

    <!-- Eyebrow Right -->
    <path d="M4990 3819 c-300 -32 -400 -63 -438 -136 -28 -51 -9 -107 44 -129 32
    -14 38 -12 137 30 57 24 128 51 157 60 68 20 213 21 316 1 47 -9 82 -11 88 -6
    6 5 22 29 35 54 l24 44 -19 39 c-35 71 -57 73 -344 43z"/>

    <!-- Mustache -->
    <path d="M4490 2778 c-14 -6 -91 -12 -180 -12 -183 -2 -193 -5 -394 -120 -257
    -147 -286 -185 -317 -414 -11 -75 -30 -211 -44 -302 -35 -235 -40 -300 -25
    -345 31 -93 132 -155 255 -155 72 0 77 4 129 107 l26 52 -26 202 c-18 147 -25
    236 -22 323 3 119 4 123 51 233 56 130 73 147 196 206 l83 41 92 -15 c50 -7
    154 -14 231 -15 124 0 153 -4 255 -31 208 -57 184 -38 246 -192 70 -176 110
    -295 124 -370 9 -50 7 -80 -10 -179 -11 -66 -20 -136 -20 -156 0 -35 3 -38 58
    -64 48 -23 70 -27 142 -26 90 1 110 7 173 56 36 29 37 31 37 97 0 119 -18 223
    -56 316 -106 263 -217 413 -430 577 -116 90 -235 139 -419 173 -44 8 -91 17
    -105 20 -14 2 -36 -1 -50 -7z"/>

    <!-- Beard -->
    <path d="M3280 2609 c0 -59 -61 -429 -98 -599 -28 -124 -60 -289 -72 -368 -11
    -79 -37 -192 -57 -255 -30 -97 -36 -129 -40 -241 -4 -82 -1 -155 7 -203 21
    -119 55 -148 270 -228 154 -58 293 -122 357 -166 26 -18 105 -85 174 -149 147
    -135 248 -198 336 -209 31 -5 112 -4 178 0 212 15 529 -23 759 -92 155 -47
    224 -59 331 -59 103 0 147 13 196 57 90 81 240 384 258 519 21 163 24 314 7
    434 -8 63 -20 156 -26 207 -6 55 -22 123 -39 170 -17 43 -53 152 -82 243 l-53
    165 12 107 c7 59 24 146 38 195 26 89 69 321 61 329 -2 2 -21 -24 -42 -58 -21
    -35 -83 -131 -136 -215 l-98 -151 19 -54 c23 -67 40 -187 40 -288 0 -69 -3
    -82 -25 -109 -66 -78 -298 -107 -387 -48 -18 12 -41 38 -50 57 -16 33 -17 44
    -3 155 8 66 15 120 15 122 0 6 -184 95 -242 117 -41 15 -98 26 -163 31 -113 8
    -139 17 -225 75 l-60 41 -73 -43 -72 -43 -165 0 c-144 0 -169 -2 -194 -18 -26
    -17 -28 -22 -21 -60 16 -103 45 -336 45 -371 0 -63 -22 -117 -66 -163 -38 -40
    -44 -43 -95 -43 -69 0 -164 24 -207 53 -18 12 -47 42 -63 67 l-31 45 5 130 c3
    72 17 219 32 328 l25 199 -41 76 c-69 126 -123 204 -183 262 -31 30 -56 52
    -56 49z"/>
  </g>
</svg>
